<mxfile host="65bd71144e">
    <diagram id="LCYSv1vEeE45f8wVK6NC" name="Page-1">
        <mxGraphModel dx="1180" dy="634" grid="1" gridSize="10" guides="1" tooltips="1" connect="1" arrows="1" fold="1" page="1" pageScale="1" pageWidth="850" pageHeight="1100" math="0" shadow="0">
            <root>
                <mxCell id="0"/>
                <mxCell id="1" parent="0"/>
                <mxCell id="3" value="" style="shape=image;verticalLabelPosition=bottom;labelBackgroundColor=#ffffff;verticalAlign=top;aspect=fixed;imageAspect=0;image=data:image/png,iVBORw0KGgoAAAANSUhEUgAABJwAAAJsCAIAAAA3Di6oAAAgAElEQVR4AezBu40DuaIFwEO/HYXAhOh3IgyCibTPhBiCHAXwgAcssIv93PlIo9aoqspcI9xbqz3/ZK6Rx2i153+Za+SdtNoDnMNcIwBA0mrPvZW5Rri3Vnv+yVwjj9Fqz/8y18g7abUHOIe5RgCApNWeeytzjXBvrfb8k7lGHqPVnv9lrpF30moPcA5zjQAASas991bmGuExWu35q7lGHqPVnr+aa4Sk1R7g2eYaAQCSVnvurcw1wmO02vNXc408Rqs9fzXXCEmrPcCzzTUCACSt9txbmWuER2q1J5lr5JFa7fmruUZIWu0BnmGuEQDgr1rtubcy1wiP1GpPMtfII7Xa81dzjZC02gP8rLlGAIC/arXnMcpcI7y+Vnv+aq4RklZ7gJ811wgA8Fet9jxGmWsEfq9We4CfNdcIAPCHVnv+31wjf9Vqz7eVuUbgt2u1B/gpc40AAH9otc818k9a7fm2MtcI/Hat9gA/Za4RAHhvrfb8yVwj/6TVnm8rc43Ab9dqD/BT5hoBgPfWas//m2vk37Xa821lrhH47VrtAX7KXCMAQNJqn2vk37Xa821lrhF4D632AI801wgA8GGt9nxbmWsE3kOrPcAjzTUCAHxYqz3fVuYagffQag/wSHONAAAf1mrPt5W5RuA9tNoDPNJcIwDAh7Xa821lrhF4J632AI8x1wgA8O9a7bm3MtcIvJNWe4DHmGsEAPiSVnu+pMw1Au+k1R7g3uYaAQC+odWeLylzjcD7abUHuJ+5RgCAb2i150vKXCPwflrtAe5nrhEA4Bta7fmSMtcIvJ9We4D7mWsEAPiGVnu+pMw1Au+n1R7gfuYaAQC+odWeLylzjcC7arUHuIe5RgCAb2i150vKXCPwrlrtAe5hrhEA4Eta7fmGMtcIvLFWe4Bvm2sEAPiSVnu+ocw1Am+s1R7gk+Ya+ZNW+1wjAMCXtNrzDWWuEXhjrfYAHzDXCADwAK32fEOZawTeWKs9wAfMNQIAPECrPd9Q5hqBN9ZqD/ABc40AAPfWas/3lCRzjcC7arUH+IC5RgCAe2u153tKkrlG4F212gN8wFwjAMC9tdrzPSXJXCNA0moP8Ie5RgCAB2u153tKkrlGgKTVHuAPc40AAA/Tas89lCRzjQBJqz3AH+YaAQAeptWeeyj5w1wjQNJqD5DMNQIAPECrPfdT8oe5RoCk1R4gmWsEAHiAVnvup8w1AvxJqz3w3uYaAQAeptWe+ylzjQB/0moPvLe5RgCAh2m1537KXCPAn7TaA+9trhEA4AFa7bm3MtcI8Cet9sC7mmsEAHiYVnvurcw1AvxJqz3wruYaAQAeptWeeytzjQB/0moPvKu5RgCAh2m1597KXCPA37TaA+9nrhEA4AFa7XmMMtcI8Det9sD7mWsEAHiAVnseo8w1AvxNqz3wfuYaAQAeoNWexyhzjQB/02oPvJ+5RgCAB2i15zHKXCPAv2i1B97JXCMAwF212vNIZa4R4D+12gPvYa4RAOCuWu15pDLXCPCfWu2B326uEQDgrlrtebwy1wjwn1rtgd9orhEA4GFa7Xm8MtcI8J9a7YHfZa4RAOBhWu35KWWuEeADWu2B32KuEQDgYVrt+SllrhHgA1rtgd9irhEA4GFa7fkpZa4R4ANa7YFXM9cIAPDjWu35KWWuEeADWu2B1zHXCADwDK32/KCSP8w1AvwvrfbAWc01AgA8W6s9P6jMNQJ8WKs9cD5zjQAAz9Zqz48rc40AX9JqDzzbXCMAwDm02vPjylwjwDe02gNPMtcIAHAarfb8uDLXCPBtrfbAj5trBAA4jVZ7flyZawS4k1Z74AfNNQIAnECrPU9S5hoB7qrVHniwuUYAgNNotedJylwjwF212gMPNtcIAHACrfY8VZlrBHiAVnvgYeYaAQBOoNWepypzjQAP0GoPPMxcIwDAU7XacwJlrhHgYVrtgbuaawQAOIFWe06gzDUCPEyrPXAnc40AAKfRas8JlLlGgB/Rag98yVwjAMBptNpzGmWuEeAHtdoDHzDXCABwSq32nEaZawT4ca32wJ/MNQIAvIhWe06jzDUC/LhWe+D/zTUCALyUVntOo8w1AjxDqz28t7lGAICX0mrPyZS5RoDnabWHdzXXCADwUlrtOZky1whwDq328B7mGgEAXkqrPadU5hoBzqHVHn67uUYAgBfUas8plblGgDNptYffZa4RAOCVtdpzVmWuEeB8Wu3hlc01AgD8Fq32nFWZawQ4n1Z7eB1zjQAAv1erPWdV5hoBzq3VHs5trhEA4PdqteesylwjwLm12sNZzTUCAPxerfacW5lrBHgFrfbwYHON/ItWe/5qrhEA4LdrtefcylwjwCtotYcHm2sEAOD/tdrzCspcI8CrabWHu5prBADgT1rteQVlrhHg1bTaw13NNQIA8Cet9ryCMtcI8B5a7eFfzDUCAPAnrfa8gjLXCPCuWu15Y3ONAAD8Tas9r6PMNQK8q1Z73sxcIwAA/6nVntdR5hoB3lurPb/UXCMAAB/Was+rKXONACSt9iRzjfyLVntex1wjAACf1GrPqylzjQB8Uqs9ZzXXCADAl7Ta82rKXCMAX9Jqz/nMNQIA8CWt9ryaMtcIwJe02nMmc40AAHxJqz2vqcw1AvANrfY821wjAADf0GrPaypzjQB8W6s9fzLXCADAK2i155WVuUYAvq3Vnj+ZawQA4BW02vPKylwjAAAA76fVntdX5hoBAAB4P632vL4y1wgAAMCbabXnVyhzjQAAALyZVnt+hTLXCAAAwJtptedXKHONAAAAvJlWe36FMtcIAADA22i15xcpc40AAAC8jVZ7fpEy1wgAAMAbaLXn1ylzjQAAALyBVnt+nTLXCAAAwBtotefXKXONAAAAvIFWe36dMtcIAADAr9Zqzy9V5hoBAAD41Vrt+aXKXCMAAAC/VKs9v1qZawQAAOCXarXnVytzjQAAAPxSrfb8amWuEQAAgF+q1Z5frcw1AgAA8Ou02vMGylwjAAAAv0irPW+jzDUCAADwi7Ta8zbKXCMAAAC/SKs9b6PMNQIAAPCLtNrzNspcIwAAAL9Cqz1vpsw1AgAA8Cu02vNmylwjAAAAr6/VnvdT5hoBAAB4fa32vJ8y1wgAAMAra7XnXZW5RgAAAF5Zqz3vqsw1AgAA8Mpa7XlXZa4RAACAV9Zqz7sqc40AAAC8plZ73luZawQAAOA1tdrz3spcIwAAAK+m1R6SMtcIAADAq2m1h6TkD3ONAAAAvIhWe0jKXCMAAACvptUekjLXCAAAwOtotYc/lLlGAAAAXkerPfyhzDUCAADwClrt4a/KXCMAAACvoNUe/qrMNQIAAHBurfbwT8pcIwAAAOfWag//pMw1AgAAcG6t9vBPylwjAAAA59ZqD/+kzDUCAABwVq328O/KXCMAAABn1WoP/67MNQIAAHBKrfbwn8pcIwAAAKfUag//qcw1AgAAcEqt9vCfylwjAAAAp9RqD/+pzDUCAABwMq328AFlrhEAAICTabWHDyhzjQAAAJxGqz18WJlrBAAA4DRa7eHDylwjAAAAp9FqDx9W5hoBAAA4jVZ7+LAy1wgAAMBptNrDh5W5RgAAAE6j1R4+rMw1AgAAcAKt9vBJZa4RAACAE2i1h08qc40AAAA8Vas9fEmZawQAAOCpWu3hS8pcIwAAAE/Sag/fUOYaAQAAeJJWe/iGMtcIAADAj2u1h28rc40AAAD8uFZ7+LYy1wgAAMCDtdrDA5S5RgAAAB6s1R4eoMw1AgAA8DCt9vAwZa4RAACAh2m1h4cpc40AAAA8Rqs9PFKZawQAAOAxWu3hkcpcIwAAAPfWag+PV+YaAQAAuLdWe3i8MtcIAADA/bTaw08pc40AAADcT6s9/JQy1wgAAMA9tNrDzypzjQAAANxDqz38rDLXCAAAwD202sPPKnONAAAA3EOrPfysMtcIAADA97TawzOUuUYAAAC+p9UenqHMNQIAAPBVrfbwPGWuEQAAgK9qtYfnKXONAAAAfF6rPTxbmWsEAADg81rt4dnKXCMAAACf12oPz1bmGgEAAPi8Vnt4tjLXCAAAwGe02sM5lLlGAAAAPqPVHs6hzDUCAADwMa32cCZlrhEAAICPabWHMylzjQAAAHxMqz2cSZlrBAAA4GNa7eFMylwjAAAAH9BqDydT5hoBAAD4gFZ7OJky1wgAAMAHtNrDyZS5RgAAAP5Tqz2cUplrBAAA4D+12sMplblGAAAA/lOrPZxSmWsEAADgP7XawymVuUYAAAD+Ras9nFiZawQAAOBftNrDiZW5RgAAAP6m1R5Or8w1AgAA8Det9nB6Za4RAACAv2m1h9Mrc40AAAD8Tas9nF6ZawQAAOBPWu3hRZS5RgAAAP6k1R5eRJlrBAAA4E9a7eFFlLlGAAAA/qTVHl5EmWsEAADg/7Xaw0spc40AAAD8v1Z7eCllrhEAAID/12oPL6XMNQIAAPD/Wu3hpZS5RgAAgLfXag8vqMw1AgAAvL1We3hBZa4RAADg7bXawwsqc40AAABvr9UeXlCZawQAAHhjrfbwsspcIwAAwBtrtYeXVeYaAQAA3lirPbysMtcIAADwxlrt4WWVuUYAAIB31WoPr6zMNQIAALyrVnt4ZWWuEQAA4F212sMrK3ONAAAA76rVHl5ZmWsEAAB4P6328PrKXCMAAMD7abWH11fmGgEAAN5Pqz28vjLXCAAA8H5a7eH1lblGAACAd9JqD79FmWsEAAB4J6328FuUuUYAAID30GoPv0uZawQAAHgPrfbwu5S5RgAAgPfQag+/S5lrBAAAeA+t9vC7lLlGAACA367VHn6jMtcIAADw27Xaw29U5hoBAAB+u1Z7+I3KXCMAAMBv12oPv1GZawQAAPiNWu3htytzjQAAAL9Rqz38dmWuEQAA4DdqtYffrsw1AgAA/CKt9vA2ylwjAADAL9JqD2+jzDUCAAD8Cq328GbKXCMAAMCv0GoPb6bMNQIAAPwKrfbwZspcIwAAwK/Qag9vpsw1AgAAvL5We3g/Za4RAADg9bXaw/spc40AAACvr9Ue3k+ZawQAAHh9rfbwfspcIwAAwCtrtYd3VeYaAQAAXlmrPbyrMtcIAADwmlrt4b2VuUYAAIDX1GoP763MNQIAALyaVnsgKXONAAAAr6bVHkjKXCMAAMCrabUHkjLXCAAA8Gpa7YGkzDUCAAC8jlZ74A9lrhEAAOB1tNoDfyhzjQAAAK+j1R74Q5lrBAAAeB2t9sAfylwjAADAK2i1B/6qzDUCAAC8glZ74K/KXCMAAMC5tdoD/6TMNQIAAJxbqz3wT8pcIwAAwFm12gP/rsw1AgAAnFWrPfDvylwjAADA+bTaA/9LmWsEAAA4n1Z74H8pc40AAADn02oP/C9lrhEAAOB8Wu2B/6XMNQIAAJxJqz3wMWWuEQAA4Exa7YGPKXONAAAA59BqD3xGmWsEAAA4h1Z74DPKXCMAAMAJtNoDn1TmGgEAAE6g1R74pDLXCAAAcAKt9sAnlblGAACAE2i1Bz6pzDUCAACcQKs98EllrhEAAOAEWu2BTypzjQAAAE/Vag98SZlrBAAAeKpWe+BLylwjAADAU7XaA19S5hoBAACeqtUe+JIy1wgAAPAkrfbAN5S5RgAAgCdptQe+ocw1AgAA/LhWe+DbylwjAADAj2u1B76tzDUCAADcSat9rpH/1GoP3EmZawQAALiTVvtcI/+p1R64kzLXCAAA8G2t9sCPK3ONAAAA99NqD/yUMtcIAABwP632wE8pc40AAAD302oP/JQy1wgAAPAwrfbAw5S5RgAAgIdptQcepsw1AgAAPEyrPfAwZa4RAADgYVrtgYcpc40AAAAP02oPPEyZawQAAHiYVnvgYcpcIwAAwAO02gMPVuYaAQAAHqDVHniwMtcIAABwP632wE8pc40AAAB30moP/KAy1wgAAHAPrfbAzypzjQAAAPfQag/8rDLXCAAA8D2t9sAzlLlGAACA72m1B56hzDUCAAB8Vas98DxlrhEAAOAbWu2BJylzjQAAAN/Qag88SZlrBAAA+IZWe+BJylwjAADAN7TaA09S5hoBAAC+odUeeJIy1wgAAPANrfbAk5S5RgAAgG9otQeepMw1AgAAfFWrPfA8Za4RAADgq1rtgecpc40AAABf1WoPPE+ZawQAAPiqVnvgecpcIwAAwOe12gPPVuYaAQAAPq/VHni2MtcIAADwea32wLOVuUYAAIDPa7UHnq3MNQIAAHxGqz1wDmWuEQAA4DNa7YFzKHONAAAAn9FqD5xDmWsEAAD4jFZ74BzKXCMAAMDHtNoDZ1LmGgEA4H9ptedfzDXC22i1B86kzDUCAPAwrfb8zVwjr+Z23fMvtssR3kCrPXA+Za4RAICHabXnb+YaOb3bdc+9bZcjvKxWe+B8ylwjAAAPcLvu4a+2yxFeUKs9cFZlrhEAgAe4XffwT7bLEV5Kqz1wVmWuEQDgt7hd93B62+UIL6XVHjirMtcIAJxAq32ukW+7Xfc83nY58gG3654/2S5H/tPtuoe3sV2O8CJa7YGzKnONAPB+btc9f7NdjnzP7brnG7bLkW+7Xfc83nY58gG3654/2S5H/tPtuoe3sV2O8CJa7YGzKnONAPB+btc9f7NdjnzP7brnG7bLkX9xu+6B32i7HOEVtNoDp1TmGgHgrG7XPf9vuxz5htt1D3BK2+UIr6DVHjilMtcIAGd1u+75f9vlyDfcrnuAU9ouR3gFrfbAKZW5RgA4h9t1D/BmtssRXkGrPXBKZa4RAH7K7boH4E+2yxFeQas9cEplrhEAHu923QPwN9vlCK+g1R44pTLXCACPd7vuAfib7XKEV9BqD5xSmWsEgEe6XfcA/IvtcoRX0GoPnFKZawSAR7pd9wD8i+1yhFfQag+cUplrBIBHul33APyL7XKEc2u1B06szDUCwCPdrnsA/sV2OcK5tdoDJ1bmGgHgMW7XPQD/absc4axa7YHTK3ONAPAYt+segP+0XY5wVq32wOmVuUYAeIzbdQ/Af9ouRzirVnvg9MpcIwA8xu26B+A/bZcjnFWrPXB6Za4RAB7jdt0D8J+2yxHOqtUeOL0y1wgAj3G77gH4T9vlCGfVag+cXplrBIB7u133AHzAdjnC+bTaAy+izDUCwGPcrnsA/pftcoSTabUHXkSZawSAx7hd9wD8L9vlCCfTag+8iDLXCACPcbvuAfiY7XKE02i1B15EmWsEgMe4XfcAfMx2OcJptNoDL6LMNQLAY9yuewA+Zrsc4TRa7YEXUeYaAeAxbtc9AB+zXY5wAq32wEspc40A8Bi36x6Aj9kuRziBVnvgpZS5RgB4jNt1D8DHbJcjPFWrPfCCSv4w1wgAd3W77gH4mO1yhKdqtQdeUJlrBIDHuF33AHzMdjnCU7XaAy+ozDUCwGPcrnsAPma7HOGpWu2BF1TmGgHgMW7XPQAfs12O8CSt9sDLKnONAPAYt+segI/ZLkd4klZ74GWVuUYAeIzbdQ/Ax2yXIzxJqz3wsspcIwA8xu26B+BjtssRnqTVHnhZZa4RAB7jdt0D8DHb5QhP0moPvKwy1wgAj3G77gH4mO1yhCdptQdeVplrBIDHuF33AHzMdjnCk7TaAy+rzDUCwGPcrnsAPmO7HOGpWu2Bl1LmGgHgMW7XPQCfsV2O8FSt9sBLKXONAPAYt+segM/YLkd4qlZ74KWUuUYAeIzbdQ/AZ2yXIzxVqz3wUspcIwA8xu26B+AztssRnqrVHngpZa4RAB7jdt0D8Bnb5QhP1WoPvJQy1wgAj3G77gH4jO1yhGdrtQdeR5lrBIDHuF33AHzGdjnCs7XaA6+jzDUCwGPcrnsAPmO7HOHZWu2B11HmGgHgMW7XPQCfsV2O8Gyt9sDrKHONAPAYt+segM/YLkd4tlZ74HWUuUYAeIzbdQ/AZ2yXIzxbqz3wOspcIwA8xu26B+AztssRnq3VHngdZa4RAO7tdt0D8Hnb5QjP1moPvI4y1wgA93a77gH4vO1yhGdrtQdeR5lrBIB7u133AHzedjnCs7XaA6+jzDUCwL3drnsAvmq7HOF5Wu2B11HmGgHg3m7XPQBftV2O8Dyt9sDrKHONAHBvt+segK/aLkd4nlZ74HWUuUYAuLfbdQ/AV22XIzxPqz3wOspcIwDc2+26B+CrtssRnqfVHngdZa4RAO7tdt0D8FXb5QjP02oPvI4y1wgA93a77gH4qu1yhOdptQdeR5lrBIB7u133AHzVdjnC87TaA6+jzDUCwL3drnsAvmq7HOF5Wu2B11HmGgHg3m7XPQBftV2O8Dyt9sDrKHONAHBvt+segK/aLkd4nlZ74HWUuUYAuLfbdQ/AV22XIzxDqz3waspcIwDc2+26B+CrtssRnqHVHng1Za4RAO7tdt0D8FXb5QjP1moPvIIy1wgA93a77gH4nu1yhGdrtQfOrcw1AsC93a57AL5nuxzh2VrtgXMrc40AcG+36x6A79kuR3i2Vnvg3MpcIwDc2+26B+B7tssRnq3VHji3MtcIAPd2u+4B+J7tcoRna7UHzq3MNQLAvd2uewC+Z7sc4dla7YFzK3ONAHBvt+segO/ZLkd4tlZ74NzKXCMA3Nvtugfge7bLEZ6t1R44tzLXCAD3drvuAfie7XKEZ2u1B86tzDUCwL3drnsAvme7HOHZWu2BcytzjQBwb7frHoDv2S5HeLZWe+DcylwjANzb7boH4Hu2yxGerdUeOLcy1wgA93a77gG4h+1yhOdptQfOrcw1AsC93a57AO5huxzheVrtgXMrc40AcG+36x6Ae9guR3ieVnvg3MpcIwDc2+26B+AetssRnqfVHji3MtcIAPd2u+4BuIftcoTnabUHzq3MNQLA/dyuewDuZ7sc4Xla7YFzK3ONAHA/t+segLvaLkd4klZ74NzKXCMA3M/tugfgrrbLEZ6k1R44tzLXCAD3c7vuAbir7XKEJ2m1B86tzDUCwP3crnsA7mq7HOFJWu2BcytzjQBwP7frHoC72i5HeKpWe+CsylwjANzJ7boH4N62yxGeqtUeOKsy1wgAd3K77gG4t+1yhKdqtQfOqsw1AsCd3K57AO5tuxzhqVrtgbMqc40AcCe36x6Ax9guR3ieVnvglMpcIwDcye26B+AxtssRnqfVHjilMtcIAHdyu+4BeIztcoTnabUHTqnMNQLAndyuewAeY7sc4Xla7YFTKnONAHAnt+segMfYLkd4nlZ74JTKXCMA3MntugfgMbbLEZ6n1R44pTLXCAB3crvuAXiM7XKEZ2u1B06mzDUCwJ3crnsAHmO7HOHZWu2BkylzjQBwJ7frHoDH2C5HOIdWe+A0ylwjANzJ7boH4DG2yxHOodUeOI0y1wgAd3K77gF4jO1yhHNotQdOo8w1AsCd3K57AB5juxzhHFrtgdMoc40AcCe36x6Ax9guRziHVnvgNMpcIwDcye26B+AxtssRnq3VHjiZMtcIAHdyu+4BeIztcoRna7UHTqbMNQLAndyuewAeY7sc4dla7YGTKXONAHAnt+segMfYLkc4h1Z74DTKXCMA3MntugfgMbbLEc6h1R44jTLXCAB3crvuAXiM7XKEc2i1B06jzDUCwJ3crnsAHmO7HOEcWu2B0yhzjQBwJ7frHoDH2C5HOIdWe+A0ylwjANzJ7boH4DG2yxHOodUeOI0y1wgAd3K77gF4pO1yhGdrtQdOo8w1AsCd3K57AB5puxzh2VrtgdMoc40AcCe36x6AR9ouR3i2VnvgNMpcIwDcye26B+CRtssRnq3VHjiNMtcIAHdyu+4BeKTtcoRna7UHTqPMNQLAndyuewAeabsc4Xla7YGTKXONAHAnt+segEfaLkd4nlZ74GTKXCMA3MntugfgkbbLEZ6t1R44jTLXCAB3crvuAXik7XKEM2m1B56qzDUCwJ3crnsAHmm7HOFMWu2BpypzjQBwJ7frHoBH2i5HOJ9We+BJylwjANzJ7boH4JG2yxHOqtUe+HFlrhEAvu123QPweNvlCGfVag/8uDLXCADfdrvuAXi87XKEs2q1B35cmWsEgG+7XfcAPN52OcJZtdoDP67MNQLAt92uewAeb7sc4axa7YEfV+YaAeDbbtc9AI+3XY5wVq32wI8rc40A8G236x6Ax9suRzirVnvgx5W5RgD4ttt1D8DjbZcjnFurPfCDylwjAHzb7boH4PG2yxHOrdUe+EFlrhEAvu123QPwU7bLEc6t1R74EWWuEQC+7XbdA/BTtssRzq3VHvgRZa4RAL7tdt0D8FO2yxFeQas98GBlrhEAvu123QPwU7bLEV5Bqz3wYGWuEQC+7XbdA/CztssRzq3VHniwMtcIAN92u+4B+Fnb5Qjn1moPPFiZawSAb7hd9wA8w3Y5witotQcepsw1AsA33K57AJ5huxzhFbTaAw9T5hoB4Btu1z0Az7BdjvAKWu2BhylzjQDwDbfrHoBn2C5HeAWt9sDDlLlGAPiG23UPwDNslyO8glZ74GHKXCMAfMPtugfgGbbLEV5Eqz3wGGWuEQC+4XbdA/Ak2+UIr6DVHniMMtcIAN9wu+4BeJLtcoTX0WoP3FuZawSAb7hd9wA8yXY5wutotQfurcw1AsA33K57AJ5kuxzhdbTaA/dW5hoB4Btu1z0AT7JdjvBqWu2B+ylzjQDwDbfrHoAn2S5HeDWt9sD9lLlGAPiG23UPwJNslyO8mlZ74H7KXCMAfMPtugfgSbbLEV5Tqz1wD2WuEQC+4XbdA/Ak2+UIr6nVHriHMtcIAN9wu+4BeJLtcoTX1GoP3EOZawSAb7hd9wA8yXY5wmtqtQfuocw1AsA33K57AJ5kuxzhNbXaA/dQ5hoB4Btu1z0AT7JdjvDKWu2B7ylzjQDwDbfrHoAn2S5HeGWt9sD3lLlGAPiG23UPwJNslyO8vgRE4ywAAAkASURBVFZ74KvKXCMAfMPtugfgSbbLEV5fqz3wVWWuEQC+4XbdA/BU2+UIr6zVHviqMtcIAN9wu+4BeKrtcoRX1moPfFWZawSAb7hd9wA81XY5witrtQe+qsw1AsA33K57AJ5quxzhlbXaA19V5hoB4Etu1z0Ap7FdjvCaWu2BrypzjQDwJbfrHoDT2C5HeE2t9sBXlblGAPiS23UPwGlslyO8plZ74KvKXCMAfMntugfgNLbLEV5Zqz3weWWuEQC+5HbdA3Aa2+UIr6/VHviMMtcIAF9yu+4BOI3tcoTfotUe+Jgy1wgAX3K77gE4je1yhN+o1R74d2WuEQC+5HbdA3Aa2+UIv1GrPfDvylwjAHzJ7boH4DS2yxF+r1Z74J+UuUYA+JLbdQ/AaWyXI/xerfbAPylzjQDwJbfrHoDT2C5H+L1a7YF/UuYaAeBLbtc9AKexXY7we7XaA/+kzDUCwJfcrnsATmO7HOH3arUH/kmZawSAL7ld9wCcxnY5wu/Vag/8kzLXCABfcrvuATiN7XKE36vVHvgnZa4RAL7kdt0DcBrb5Qi/V6s98E/KXCMAfMntugfgNLbLEX6vVnvgn5S5RgD4ktt1D8BpbJcjvIdWe+APZa4RAL7kdt0DcBrb5QjvqtUe3lWZawSAL7ld9wCcxnY5wrtqtYd3VeYaAeBLbtc9AKexXY7w3lrt4f2UuUYA+JLbdQ/AaWyXI7y3Vnt4P2WuEQC+5HbdA3Aa2+UIJK328E7KXCMAfMntugfgNLbLEUha7eGdlLlGAPiS23UPwGlslyOQtNrDOylzjQDwJbfrHoDT2C5HIGm1h3dS5hoB4JNu1z0Ap7RdjvDeWu3hnZS5RgD4pNt1D8ApbZcjvLdWe3gnZa4RAD7pdt0DcErb5QjvrdUe3kmZawSAT7pd9wCc0nY5wntrtYd3UuYaAeCTbtc9ACe2XY7wrlrt4Z2UuUYA+KTbdQ/AiW2XI7yrVnt4J2WuEQA+6XbdA3Bi2+UIb6/VHt5AmWsEgE+6XfcAnNh2OcLba7WHN1DmGgHgk27XPQAntl2OwP9rtYdfrcw1AsAn3a57AE5suxyB/9dqD79amWsEgE+6XfcAnNh2OQJ/0moPv1SZawSAT7pd9wCc2HY5An/Sag+/VJlrBIBPul33AJzYdjkCf9NqD79OmWsEgE+6XfcAnNh2OQJ/02oPv06ZawSAT7pd9wCc23Y5Av9Lqz28uDLXCACfdLvuATi37XIE/pdWe3hxZa4RAD7pdt0DcG7b5Qj8L6328OLKXCMAfNLtugfg3LbLEfhfWu3hxZW5RgD4sP9rD46NZDmhMIz++DiEQELXJ5EbBIngkxAh4BCALFVJpSeJmd3t1/R856xZBAAniKkJ+D+WXThc6KMKALBtzSIAOEFMTcD/sezC4UIfVQCADWsWAcA5YmoC9lh24VihjyoAwIY1iwDgHDE1AXssu3Cs0EcVAGDDmkUAcI6YmoA9ll04VuijCgCwbc0iADhBTE3AHssuHCv0UQUA2LZmEQCcIKYm4HWWXThK6KMKALBtzSIAOEFMTcDrLLtwlNBHFQBg25pFAHCCmJqAd1l24RChjyoAwLY1iwDgBDE1Ae+y7MIhQh9VAIBtaxYBwAliagK+xrILtxf6qAIAbFuzCABOEFMT8DWWXbi90EcVAGDbmkUAcI6YmoB3WXbh9kIfVQCAbWsWAcA5YmoC3mXZhdsLfVQBALatWQQA54ipCXiXZRduL/RRBQDYtmYRAJwjpibgXZZduL3QRxUAYNuaRQBwjpiagK+x7MKNhT6qAADb1iwCgHPE1AR8jWUXbiz0UQUA2LZmEQCcI6Ym4Gssu3BjoY8qAMC2NYsA4BwxNQHfwbILtxT6qAIAbFuzCADOEVMT8H0su3AzoY8qAMC2NYsA4DQxNQHfzbILNxD6qAIAbFuzCABOE1MTcBXLLlwo9FEFANi2ZhEAnCamJuAqll24UOijCgCwbc0iADhNTE3AVSy7cKHQRxUAYNuaRQBwmpiagKtYduFCoY8qAMC2NYsA4DQxNQFXsezChUIfVQCAbWsWAcBpYmoCrmLZhQuFPqoAANvWLAKA08TUBFzFsgsXCn1UAQC2rVkEAKeJqQm4imUXLhT6qAIAbFuzCABOE1MTcBXLLlwo9FEFANi2ZhEAnCamJuAqll24UOijCgCwbc0iADhNTE3AtSy7cInQRxUAYNuaRQBwmpiagGtZduESoY8qAMC2NYsA4DQxNQG/g2UXfljoowoAsGHNIgA4U0xNwO9j2YUfE/qoAgBsWLMIAE4TUxPwu1l24ceEPqoAABvWLAKA08TUBNyDZRd+QOijCgCwYc0iADhHTE3AjVl24TuEPqoAABvWLAKAc8TUBNyYZRe+Q+ijCgCwYc0iAHhFTE0ANlh24V2hjyoAwIY1iwD8mJiaXrRm0b3F1ARgm2UXXhf6qAIAbFizCMAPiKnpLWsWXS6mJgA/ybILrwh9VAEANqxZBOA/xdQEAN/Bsgt7Qh9VAIANaxbhoWJq2rBm0Vtiatq2ZtG2mJq2rVn0w2JqAoCfYdmFXwl9VAEANqxZhAeJqektaxa9KKambWsWbYip6UVrFv2LmJoA4N4su/AroY8qAMC2NYtwrJiaAABnsuzCr4Q+qgAAL1qz6EAxNX3ZmiWmpsutWfQPMTUBAD6DZRd+JfRRBQB4y5pFNxZT0+OsWfQXMTUBAD6JZRf+LvRRBQB4y5pFv1VMTQAAfBLLLvxd6KMKAAAAAM5h2YU/hT6qAAAAAOAcll34U+ijCgAAAABOY9kFKfRRBQAAAACnseyCFPqoAgAAAICTWXZ9qtBHFQAAAACczLLrU4U+qgAAAADgKSy7PknoowoAAAAAnsWy6zOEPqoAAAAA4Iksu54u9FEFAAAAAE9k2fV0oY8qAAAAAHguy67nCn1UAQAAAMDTWXY9UeijCgAAAAA+g2XXs4Q+qgAAAADgM1h2PUvoowoAAAAAPoll11OEPqoAAAAA4JNYdj1F6KMKAAAAAD6JZddThD6qAAAAAOCTWHY9ReijCgAAAAA+iWXXU/wBzyUhIbTYjT0AAAAASUVORK5CYII=;" parent="1" vertex="1">
                    <mxGeometry y="200" width="266.45" height="140" as="geometry"/>
                </mxCell>
                <mxCell id="6" value="" style="shape=singleArrow;whiteSpace=wrap;html=1;fillColor=#00FF00;strokeColor=#00FF00;arrowWidth=0.4385431925455729;arrowSize=0.4505536595226658;" parent="1" vertex="1">
                    <mxGeometry x="273" y="250" width="47" height="44" as="geometry"/>
                </mxCell>
                <mxCell id="8" value="" style="shape=image;verticalLabelPosition=bottom;labelBackgroundColor=#ffffff;verticalAlign=top;aspect=fixed;imageAspect=0;image=data:image/png,iVBORw0KGgoAAAANSUhEUgAABJwAAAJsCAIAAAA3Di6oAAAgAElEQVR4AezBUZWySbKG0TeEcBEW8BECMJIiwggC0gcW4gIhedb0ml6nc/pPqqCA+oBnbxsCPoIJwPMMAQCAL5juw4aAj2AC8DxDAADgEtPd2BDwKUwAnmEIAAB8wXQ3NgR8ChOAZxgCAABfMN2NDQEfxATgsYYAAMB3me7Ahia9UsArC29aMwF4oKEv9EoBAPDWwpuuZPoRG5r0SgGvLLzpIhOARxm6pFcKAIB3F950PdPtbGjSKwW8uPCmNROAhxi6pFcKAIB3F950E9PtbGjSKwW8uPCmi0wA7m/okl4pAADeWnjTD5huZEOTXing9YU3rZkA3NnQJb1SAAC8u/CmHzDdyIYmvVLAWwhvWjMBuJuhL/RKAQDw7sKbfsB0Ixua9EoBbyG8ac0E4G6GLumVAgDg3YU3/YzpRjY06ZUC3kV405oJwB0MfaFXCgCADxDe9AOmG9nQpFcKeBfhTWsmAHcwdEmvFAAAnyG86QdMN7KhSa8U8EbCm9ZMAH5k6JJeKQAAPkl401qvDG9aMN3Ihia9UsAbCW9aMwG43dAXeqUAAPg84U1/6ZWahTctmG5kQ5NeKeC9hDetmQDcaOiSXikAADALb1ow3ciGJr1SwHsJb1ozAbjF0Bd6pQAAwCy8acF0Ixua9EoBbye8ac0E4GpDl/RKAQCAfwlvWjDdyIYmvVLA2wlvWjMBuM7QJb1SAADgT8KbFkw3sqFJrxTwjsKb1kwArjB0Sa8UAAD4k/CmBdONbGjSKwW8o/CmNROA7xq6pFcKAACshTctmG5hQ5NeKeBNhTetmQB8begLvVIAAGAtvGnBdAsbmvRKAW8qvGnNBOBrQ5f0SgEAgIvCmxZMt7ChSa8U8L7Cm9ZMAC4ZuqRXCgAAfCW8acF0Cxua9EoB7yu8ac0E4JKhS3qlAADAV8KbFky3sKFJrxTw1sKb1kwA/mzokl4pAADwDeFNC6Zb2NCkVwp4a+FNayYAfzD0hV4pAADwDeFNC6Zb2NCkVwp4d+FNayYA/2vokl4pAADwPeFNC6Zb2NCkVwp4d+FNayYAk6FLeqUAAMC3hTctmG5hQ5NeKeADhDetmQD8v6FLeqUAAMC3hTctmG5hQ5NeKeADhDetmQD819AlvVIAAOAa4U0LplvY0KRXCvgM4U1rJgAa+kKvFAAAuEZ404LpFjY06ZUCPkN405oJgIYu6ZUCAADXCG9aM93Chia9UsDHCG9aMwEfbegLvVIAAOAa4U0LphvZ0KRXCvgY4U1rJuCjDV3SKwUAAK4R3rRmupENTXqlgE8S3rRmAj7U0CW9UgAA4BrhTReZbmRDk14p4JOEN62ZgE809IVeKQAAcI3wpjXT7Wxo0isFfJjwpjUT8HGGLumVAgAA1whvWjP9iA1NeqWADxPetGYCPsvQF3qlAADAt4U3XWT6ERua9EoBnye8ac0EfJChS3qlAADANcKb1kw/ZUOTXing84Q3rZmATzF0Sa8UAAC4RnjTmukObGjSKwV8pPCmNRPw/oa+0CsFAAC+LbzpItMd2NCkVwr4SOFNaybg/Q1d0isFAACuEd60ZroPG5r0SgGfKrxpzQS8s6Ev9EoBAIBvC29aM92NDU16pYBPFd60ZgLe2dAlvVIAAODbwpsuMt2NDU16pYAPFt60ZgLe09AlvVIAAOAa4U1rpnuyoUmvFPDBwpvWTMC7GfparxQAAPi28KY1053Z0KRXCvhs4U1rJuB9DH2tVwoAAHxbeNNFpjuzoUmvFPDZwpvWTMA7GPquXikAAPBt4U1rpvuzoUmvFPDxwpvWTMALG7pCrxQAAPi28KY100PY0KRXCvh44U0XmYCXNHSFXikAAPBt4U0XmR7Chia9UgCk8KY1E/Bihq7TKwUAAK4R3rRmehQbmvRKAZDCmy4yAa9h6Gq9UgAA4BrhTWumB7KhSa8UgL+EN62ZgBcwdLVeKQAAcI3wpotMD2RDk14pAH8Jb7rIBGzX0NV6pQAAwPXCm9ZMj2VDk14pAH8Lb7rIBGzO0NV6pQAAwE3Cm9ZMD2dDk14pAH8Lb/oeE7AJQ1frlQIAADcJb7rI9HA2NOmVAvAP4U3fZgJ+zdDVeqUAAMAPhDetmZ7Bhia9UgD+IbzpeibgeYau1isFAAB+JrxpzfQkNjTplQIwC2+6iQl4uKGr9UoBAICfCW+6yPQkNjTplQIwC2/6GRNwf0NX65UCAAD3EN60ZnoeG5r0SgH4k/CmnzEB9zF0tV4pAABwJ+FNa6ansqFJrxSAhfCmezABNxq6Ra8UAAC4k/Cmi0xPZUOTXikAF4U33YkJ+NrQ7XqlAADAXYU3rZmezYYmvVIAvie86R5MwP8a+qleKQAAcG/hTWumX2BDk14pANcIb7oTEz7a0N30SgEAgHsLb7rI9AtsaNIrBeAm4U33YMIHGbqzXikAAPAY4U1rpt9hQ5NeKQA/EN50Jya8p6GH6JUCAAAPE960Zvo1NjTplQJwD+FNd2LCyxt6rF4pAADwMOFNF5l+jQ1NeqUA3FV40z2Y8GKGnqFXCgAAPFh405rpN9nQpFcKwAOEN92JCZs29CS9UgAA4PHCm9ZMv8yGJr1SAB4pvOkeTNiQoefplQIAAM8S3nSR6ZfZ0KRXCsDjhTfdiQm/Y+h5eqUAAMBvCG9aM/0+G5r0SgF4ovCmezDhGYaep1cKAAD8qvCmNdMm2NCkVwrAbwhvugcT7mzoeXqlAADANoQ3XWTaBBua9EoB+D3hTXdiwu2GnqdXCgAAbE9405ppK2xo0isFYAPCm+7BhO8aep5eKQAAsGHhTWumDbGhSa8UgM0Ib7oTE/5g6Hl6pQAAwCsIb7rItCE2NOmVArA94U33YIKGnqpXCgAAvJTwpjXTttjQpFcKwFaFN92J6bMMPVWvFAAAeE3hTWumzbGhSa8UgM0Lb7oH0zsbeqpeKQAA8OLCmy4ybY4NTXqlALyO8KZ7ML2JoafqlQIAAG8kvGnNtEU2NOmVAvBqwpvuxPR6hp6qVwoAALyj8KY100bZ0KRXCsDLCm+6B9PWDT1VrxQAAHhr4U0XmTbKhia9UgBeXHjTnZg2ZOipeqUAAMDHCG9aM22XDU16pQC8i/CmezD9pqHn6ZUCAACfJ7xpzbRpNjTplQLwXsKb7sT0JEPP0ysFAAA+WHjTRaZNs6FJrxSANxXedCem+xt6nl4pAACAv4Q3rZm2zoYmvVIA3l140z2YfmroeXqlAAAAZuFNa6YXYEOTXikAnyG86U5MVxh6nl4pAACAhfCmi0wvwIYmvVIAPkx40z2Yloaep1cKAADgG8Kb1kyvwYYmvVIAPlJ4052Y/mPoeXqlAAAArhHetGZ6GTY06ZUC8NnCm15BrxQAAMBNwpsuMr0MG5r0SgHAX8KbtqdXCgAA4GfCm9ZMr8SGJr1SAPAP4U2/rVcKAADgTsKb1kwvxoYmvVIA8CfhTU/UKwUAAHBv4U0XmV6MDU16pQBgLbzpYXqlAAAAHim8ac30emxo0isFAN8Q3nQPvVIAAABPEd60ZnpJNjTplQKAbwtvul6vFAAAwHOFN11kekk2NOmVAoDrhTdd1CsFAADwe8Kb1kyvyoYmvVIA8APhTX/rlQIAANiA8KY10wuzoUmvFAAAAAC8kfCmi0wvzIYmvVIAAAAA8EbCm9ZMr82GJr1SAAAAAPAuwpvWTC/Phia9UgAAAADwFsKbLjK9PBua9EoBAAAAwFsIb1ozvQMbmvRKAQAAAMDrC29aM70JG5r0SgEAAADAiwtvusj0Jmxo0isFAAAAAC8uvGnN9D5saNIrBQAAAACvLLxpzfRWbGjSKwUAAAAALyu86SLTW7GhSa8UAAAAALys8KY107uxoUmvFAAAAAC8pvCmNdMbsqFJrxQAAAAAvKDwpotMb8iGJr1SAAAAAPCCwpvWTO/Jhia9UgAAAADwasKb1kxvy4YmvVIAAAAA8FLCmy4yvS0bmvRKAQAAAMBLCW9aM70zG5r0SgEAAADA6whvWjO9ORua9EoBAAAAwIsIb7rI9OZsaNIrBQAAAAAvIrxpzfT+bGjSKwUAAAAAryC8ac30EWxo0isFAAAAAJsX3nSR6SPY0KRXCgAAAAA2L7xpzfQpbGjSKwUAAAAA2xbetGb6IDY06ZUCAAAAgA0Lb7rI9EFsaNIrBQAAAAAbFt60ZvosNjTplQIAAACArQpvWjN9HBua9EoBAAAAwCaFN11k+jg2NOmVAgAAAIBNCm9aM30iG5r0SgEAAADA9oQ3rZk+lA1NeqUAAAAAYGPCmy4yfSgbmvRKAQAAAMDGhDetmT6XDU16pQAAAABgS8Kb1kwfzYYmvVIAAAAAsBnhTReZPpoNTXqlAAAAAGAzwpvWTJ/Ohia9UgAAAACwDeFNaybIhia9UgAAAACwAeFNF5kgG5r0SgEAAADABoQ3rZnwHzY06ZUCAAAAgN8W3rRmwn/Z0KRXCgAAAAB+VXjTRSb8lw1NeqUAAAAA4FeFN62Z8P9saNIrBQAAAAC/J7xpzYSJDU16pQAAAADgl4Q3XWTCxIYmvVIAAAAA8EvCm9ZM+F82NOmVAgAAAIDfEN60ZsIf2NCkVwoAAAAAni686SIT/sCGJr1SAAAAAPB04U1rJvyZDU16pQAAAADgucKb1kxYsqFJrxQAAAAAPFF400UmLNnQpFcKAAAAAJ4ovGnNhEtsaNIrBQAAAADPEt60ZsIXbGjSKwUAAAAATxHedJEJX7ChSa8UAAAAADxFeNOaCV+zoUmvFAAAAAA8XnjTmgnfYkOTXikAAAAAeLzwpjUTvsWGJr1SAAAAAPBg4U1rJnyXDU16pQAAAADgkcKb1ky4gg1NeqUAAAAA4JHCm9ZMuIINTXqlAAAAAOBhwpvWTLiODU16pQAAAADgMcKb1ky4mg1NeqUAAAAA4DHCm9ZMuJoNTXqlAAAAAOABwpvWTLiFDU16pQAAAADg3sKbLjLhFjY06ZUCAAAAgHsLb1oz4UY2NOmVAgAAAIC7Cm9aM+F2NjTplQIAAACA+wlvusiE29nQpFcKAAAAAO4nvGnNhB+xoUmvFAAAAADcSXjTmgk/ZUOTXikAAAAAuIfwpotM+CkbmvRKAQAAAMA9hDetmXAHNjTplQIAAACAHwtvWjPhPmxo0isFAAAAAD8T3nSRCfdhQ5NeKQAAAAD4mfCmNRPuxoYmvVIAAAAA8APhTWsm3JMNTXqlAAAAAOBW4U0XmXBPNjTplQIAAACAW4U3rZlwZzY06ZUCAAAAgJuEN62ZcH82NOmVAgAAAIDrhTddZML92dCkVwoAAAAArhfetGbCQ9jQpFcKAAAAAK4U3rRmwqPY0KRXCgAAAACuEd50kQmPYkOTXikAAAAAuEZ405oJD2RDk14pAAAAAPi28KY1Ex7Lhia9UgAAAADwPeFNF5nwWDY06ZUCAAAAgO8Jb1oz4eFsaNIrBQAAAADfEN60ZsIz2NCkVwoAAAAAvhLedJEJz2BDk14pAAAAAPhKeNOaCU9iQ5NeKQAAAAC4KLxpzYTnsaFJrxQAAAAArIU3XWTC89jQpFcKAAAAANbCm9ZMeCobmvRKAQAAAMBCeNOaCc9mQ5NeKQAAAAD4k/Cmi0x4Nhua9EoBAAAAwJ+EN62Z8AtsaNIrBQAAAAD/Et60ZsLvsKFJrxQAAAAAzMKbLjLhd9jQpFcKAAAAAGbhTWsm/BobmvRKAQAAAMA/hDetmfCbbGjSKwUAAAAAfwtvusiE32RDk14pAAAAAPhbeNOaCb/Mhia9UgAAAADwl/CmNRN+nw1NeqUAAAAAQApvusiE32dDk14pAAAAAJDCm9ZM2AQbmvRKAQAAAPh44U1rJmyFDU16pQAAAAB8tvCmi0zYChua9EoBAAAA+GzhTWsmbIgNTXqlAAAAAHyw8KY1E7bFhia9UgAAAAA+VXjTRSZsiw1NeqUAAAAAfKrwpjUTNseGJr1SAAAAAD5SeNOaCVtkQ5NeKQAAAACfJ7zpIhO2yIYmvVIAAAAAPk9405oJG2VDk14pAAAAAB8mvGnNhO2yoUmvFAAAAIBPEt50kQnbZUOTXikAAAAAnyS8ac2ETbOhSa8UAAAAgI8R3rRmwtbZ0KRXCgAAAMBnCG+6yISts6FJrxQAAACAzxDetGbCC7ChSa8UAAAAgA8Q3rRmwmuwoUmvFAAAAIB3F950kQmvwYYmvVIAAAAA3l1405oJL8OGJr1SAAAAAN5aeNOaCa/Ehia9UgAAAADeV3jTRSa8Ehua9EoBAAAAeF/hTWsmvBgbmvRKAQAAAHhT4U1rJrweG5r0SgEAAAB4R+FNF5nwemxo0isFAAAA4B2FN62Z8JJsaNIrBQAAAODthDetmfCqbGjSKwUAAADgvYQ3XWTCq7KhSa8UAAAAgPcS3rRmwguzoUmvFAAAAIA3Et60ZsJrs6FJrxQAAACAdxHedJEJr82GJr1SAAAAAN5FeNOaCS/Phia9UgAAAADeQnjTmgnvwIYmvVIAAAAAXl9400UmvAMbmvRKAQAAAHh94U1rJrwJG5r0SgEAAAB4ceFNaya8Dxua9EoBAAAAeGXhTReZ8D5saNIrBQAAAOCVhTetmfBWbGjSKwUAAADgZYU3rZnwbmxo0isFAAAA4DWFN11kwruxoUmvFAAAAIDXFN60ZsIbsqFJrxQAAACAFxTetGbCe7KhSa8UAAAAgFcT3nSRCe/Jhia9UgAAAABeTXjTmglvy4YmvVIAAAAAXkp405oJ78yGJr1SAAAAAF5HeNNFJrwzG5r0SgEAAAB4HeFNaya8ORua9EoBAAAAeBHhTWsmvD8bmvRKAQAAAHgF4U0XmfD+bGjSKwUAAADgFYQ3rZnwEWxo0isFAAAAYPPCm9ZM+BQ2NOmVAgAAALBt4U0XmfApbGjSKwUAAABg28Kb1kz4IDY06ZUCAAAAsGHhTWsmfBYbmvRKAQAAANiq8KaLTPgsNjTplQIAAACwVeFNayZ8HBua9EoBAAAA2KTwpjUTPpENTXqlAAAAAGxPeNNFJnwiG5r0SgEAAADYnvCmNRM+lA1NeqUAAAAAbEx405oJn8uGJr1SAAAAALYkvOkiEz6XDU16pQAAAABsSXjTmgkfzYYmvVIAAAAANiO8ac2ET2dDk14pAAAAANsQ3nSRCZ/Ohia9UgAAAAC2IbxpzQTIhia9UgAAAAA2ILxpzQT8hw1NeqUAAAAA/LbwpotMwH/Y0KRXCgAAAMBvC29aMwH/ZUOTXikAAAAAvyq8ac0E/D8bmvRKAQAAAPg94U0XmYD/Z0OTXikAAAAAvye8ac0ETGxo0isFAAAA4JeEN62ZgP9lQ5NeKQAAAAC/IbzpIhPwv2xo0isFAAAA4DeEN62ZgD+woUmvFAAAAICnC29aMwF/ZkOTXikAAAAAzxXedJEJ+DMbmvRKAQAAAHiu8KY1E7BkQ5NeKQAAAABPFN60ZgIusaFJrxQAAACAZwlvusgEXGJDk14pAAAAAM8S3rRmAr5gQ5NeKQAAAABPEd60ZgK+ZkOTXikAAAAADxbe9BUT8DUbmvRKAQAAAHiM8KbvMQHfYkOTXikAAAAAdxXedA0T8F02NOmVAgAAAHAP4U03MQHfZUOTXikAAAAAPxDe9AMm4Ao2NOmVAgAAAHCT8KafMQHXsaFJrxQAAACAa4Q33YMJuJoNTXqlAAAAAHxbeNM9mIBb2NCkVwoAAADA94Q3/YwJ+BEbmvRKAQAAAPie8KZbmYA7sKFJrxQAAACAbwhvup4JuCcbmvRKAQAAAPie8KbvMQEPYUOTXikAAAAA3xPedJEJeCwbmvRKAQAAAPie8KavmIAHsqFJrxQAAACAbwtv+ooJeBQbmvRKAQAAALhGeNNXTMBD2NCkVwoAAADAlcKbvmIC7s+GJr1SAAAAAK4X3nSRCbg/G5r0SgEAAAC4XnjTRSbg/mxo0isFAAAA4CbhTReZgDuzoUmvFAAAAIBbhTctmID7s6FJrxQAAACAm4Q3XWQC7syGJr1SAAAAAG4S3rRmAu7Phia9UgAAAABuEt60ZgLuz4YmvVIAAAAArhfetGYCHsKGJr1SAAAAAK4X3rRmAh7Chia9UgAAAACuFN60ZgIexYYmvVIAAAAArhTetGYCHsWGJr1SAAAAAK4R3rRmAh7Ihia9UgAAAACuEd60ZgIeyIYmvVIAAAAAvi28ac0EPJYNTXqlAAAAAHxbeNOaCXgsG5r0SgEAAAD4nvCmNRPwcDY06ZUCAAAA8D3hTWsm4OFsaNIrBQAAAOAbwpvWTMAz2NCkVwoAAADAN4Q3rZmAZ7ChSa8UAAAAgK+EN62ZgCexoUmvFAAAAICvhDetmYAnsaFJrxQAAACAi8Kb1kzA89jQpFcKAAAAwEXhTWsm4HlsaNIrBQAAAGAtvOkiE/A8NjTplQIAAACwFt60ZgKeyoYmvVIAAAAAFsKbLjIBT2VDk14pAAAAAAvhTWsm4NlsaNIrBQAA8GHCm76tVwqfKrzpIhPwbDY06ZUCAAB4EeFNv6dXCh8mvGnNBPwCG5r0SgEAADxSeNN76ZXCZwhvWjMBv8CGJr1SAAAA/xLehK/0SuF9hTetmYDfYUOTXikAAPAuwpvwG3ql8HbCm9ZMwO+woUmvFAAA+FXhTXgjvVJ4feFNaybg19jQpFcKAADcJLwJWOuVwssKb1ozAb/Ghia9UgAAfJLwJuC5eqXwUsKb1kzAb7KhSa8UAACbF94EvL5eKbyC8KY1E/CbbGjSKwUAwGOENwH4k14pbFV405oJ+GU2NOmVAgBgFt4E4MF6pbBJ4U1rJuCX2dCkVwoA8BbCmwC8lF4pbEx405oJ+H02NOmVAgD8nvAmAJ+qVwobE960ZgJ+nw1NeqUAAA8Q3gQAX+mVwmaEN62ZgE2woUmvFADgrsKbAOB7eqWwGeFNayZgE2xo0isFALif8CYA+LZeKWxDeNOaCdgKG5r0SgEA7ie8CcDa8XTWhznsd1rrlcI2hDetmYCtsKFJrxQA4E7Cm/AYx9NZwMs67Hda6JXCBoQ3XWQCtsKGJr1SAIA7CW/CPxxPZwH4y2G/00KvFH5beNOaCdgQG5r0SgEA7iS86fUdT2cBuLfDfqeFXin8qvCmi0zAhtjQpFcKAHAn4U2/53g6C8BWHfY7LfRK4VeFN62ZgG2xoUmvFADgTsKbrnQ8nQXgAxz2Oy30SuH3hDddZAK2xYYmvVIAgDsJb1o4ns4C8MEO+50WeqXwe8Kb1kzA5tjQpFcKAHAP4U0Lx9NZAD7bYb/TQq8Ufk9405oJ2BwbmvRKAQDuIbxp4Xg6C8BnO+x3WuiVwi8Jb1ozAVtkQ5NeKQDAPYQ3LRxPZwH4bIf9Tgu9Uvgl4U1rJmCLbGjSKwUAuIfwpoXj6SwAH++w3+lPeqXwG8Kb1kzARtnQpFcKAHAP4U0Lx9NZAD7eYb/TQq8Uni68ac0EbJQNTXqlAAD3EN60cDydBeDjHfY7LfRK4bnCm9ZMwHbZ0KRXCgBwD+FNC8fTWQA+3mG/00KvFJ4rvGnNBGyXDU16pQAA9xDetHA8nQXg4x32Oy30SuGJwpvWTMCm2dCkVwoAcA/hTQvH01kAPt5hv9NCrxSeKLxpzQRsmg1NeqUAAPcQ3rRwPJ0F4OMd9jst9ErhWcKb1kzA1tnQpFcKAHAP4U0Lx9NZAD7eYb/TQq8UniW8ac0EbJ0NTXqlAAD3EN70J8fTWQAgHfY7LfRK4SnCm9ZMwAuwoUmvFADgx8KbFo6nswDgL4f9Tgu9Uni88KY1E/ACbGjSKwUA+LHwpoXj6SwA+Mthv9NCrxQeLLxpzQS8Bhua9EoBAH4svGnheDoLAP5y2O+00CuFBwtvWjMBr8GGJr1SAIAfC29aOJ7OAoC/HPY7LfRK4ZHCm9ZMwMuwoUmvFADgx8KbFo6nswDgL4f9Tgu9Unik8KY1E/AybGjSKwUA+LHwpoXj6SwA+Mthv9NCrxQeJrzpIhPwMmxo0isFAPix8KaF4+ksAPjLYb/TQq8UHim8acEEvBIbmvRKAQB+LLxp4Xg6CwD+ctjvtNArhYcJb1ozAa/Ehia9UgCAHwtvWjiezgKAvx32O/1JrxQeJrxpwQS8GBua9EoBAH4svGnheDoLAP522O+00CuFxwhvWjABL8aGJr1SAIAfC29aOJ7OAoC/HfY7LfRK4THCm9ZMwCuxoUmvFADgZ8KbFo6nswDgHw77nRZ6pfAw4U0LJuCV2NCkVwoA8DPhTQvH01kA8A+H/U4LvVJ4mPCmBRPwSmxo0isFAPiZ8KaF4+ksAPiHw36nhV4pPEx404IJeCU2NOmVAgD8THjTwvF0FgD8w2G/00KvFB4mvGnBBLwSG5r0SgEAfia8aeF4OgsA/uGw32mhVwoPE960YAJeiQ1NeqUAAD8T3rRwPJ0FAP9w2O+00CuFhwlvWjABr8SGJr1SAICfCW9aOJ7OAoDZYb/Tn/RK4WHCm9ZMwMuwoUmvFADgZ8KbFo6nswBgdtjvtNArhYcJb1owAS/Dhia9UgCAnwlvWjiezgKA2WG/00KvFB4mvGnBBLwMG5r0SgEAfia8aeF4OgsAZof9Tgu9UniY8KYFE/AybGjSKwUA+JnwpoXj6SwAmB32Oy30SuFhwpsWTMDLsKFJrxQA4GfCm/7keDoLAP7lsN9poVcKDxPetGACXoYNTXqlAAA/EN60cDydBQD/ctjvtNArhYcJb1ozAa/Bhia9UgCAHwhvWjiezgKAfznsd1rolcIjhTctmIDXYEOTXikAwA+ENy0cT2cBwL8c9jst9ErhkcKbFkzAa7ChSa8UAOAHwpsWjqezAOBPDvudFnql8DDhTQsm4DXY0KRXCgDwA+FNC8fTWQDwJ4f9Tgu9UniY8KYFE/AabGjSKwUA+IHwpoXj6SwA+JPDfqeFXik8THjTggl4DTY06ZUCAPLXdq8AABnJSURBVPxAeNPC8XQWAPzJYb/TQq8UHia8acEEvAYbmvRKAQB+ILxp4Xg6CwD+5LDfaaFXCg8T3rRmAl6ADU16pQAAPxDetHA8nQUAf3LY77TQK4VHCm9aMAEvwIYmvVIAgB8Ib1o4ns4CgD857Hda6JXCI4U3LZiAF2BDk14pAMAPhDctHE9nAcCfHPY7LfRK4ZHCmxZMwAuwoUmvFADgVuFNC8fTWQCwdtjv9Ce9Unik8KYFE/ACbGjSKwUAuFV408LxdBYArB32Oy30SuFhwpsWTMALsKFJrxQA4FbhTQvH01kAsHbY77TQK4WHCW9aMwFbZ0OTXikAwK3CmxaOp7MAYO2w32mhVwqPFN60YAK2zoYmvVIAgFuFNy0cT2cBwNphv9NCrxQeKbxpwQRsnQ1NeqUAALcKb1o4ns4CgLXDfqeFXik8UnjTggnYOhua9EoBAG4V3rRwPJ0FAGuH/U4LvVJ4pPCmBROwdTY06ZUCANwqvGnheDoLANYO+50WeqXwSOFNCyZg62xo0isFALhVeNPC8XQWAKwd9jst9ErhkcKbFkzA1tnQpFcKAHCr8KaF4+ksALjosN9poVcKDxPetGYCNs2GJr1SAIBbhTctHE9nAcBFh/1OC71SeKTwpgUTsGk2NOmVAgDcJLxp4Xg6CwC+ctjvtNArhUcKb1owAZtmQ5NeKQDATcKbFo6nswDgK4f9Tgu9Unik8KYFE7BpNjTplQIA3CS8aeF4OgsAvnLY77TQK4VHCm9aMAGbZkOTXikAwE3CmxaOp7MA4CuH/U4LvVJ4pPCmBROwaTY06ZUCANwkvGnheDoLAL5y2O+00CuFRwpvWjMB22VDk14pAMBNwpsWjqezAOArh/1OC71SeLDwpgUTsF02NOmVAgDcJLxp4Xg6CwC+ctjvtNArhQcLb1owAdtlQ5NeKQDATcKbFo6nswDgGw77nRZ6pfBI4U0LJmC7bGjSKwUAuEl408LxdBYAfMNhv9NCrxQeKbxpwQRslw1NeqUAADcJb1o4ns4CgG847Hda6JXCI4U3LZiA7bKhSa8UAOAm4U0Lx9NZAPANh/1OC71SeKTwpgUTsF02NOmVAgDcJLxp4Xg6CwC+4bDfaaFXCo8U3rRmAjbKhia9UgCA64U3LRxPZwHA9xz2Oy30SuHBwpsWTMBG2dCkVwoAcL3wpoXj6SwA+J7DfqeFXik8WHjTggnYKBua9EoBAK4X3rRwPJ0FAN9z2O+00CuFBwtvWjABG2VDk14pAMD1wpsWjqezAODbDvud/qRXCg8W3rRgAjbKhia9UgCA64U3LRxPZwHAtx32Oy30SuGRwpsWTMBG2dCkVwoAcL3wpoXj6SwA+LbDfqeFXik8UnjTmgnYIhua9EoBAK4X3rRwPJ0FAN922O+00CuFBwtvWjABW2RDk14pAMD1wpsWjqezAODbDvudFnql8GDhTQsmYItsaNIrBQC4XnjTwvF0FgB822G/00KvFB4svGnBBGyRDU16pQAA1wtvWjiezgKAbzvsd1rolcKDhTctmIAtsqFJrxQA4HrhTQvH01kA8G2H/U4LvVJ4sPCmBROwRTY06ZUCAFwpvGnheDoLAK5x2O+00CuFBwtvWjABW2RDk14pAMCVwpsWjqezAOBKh/1OC71SeKTwpjUTsDk2NOmVAgBcKbxp4Xg6CwCudNjvtNArhQcLb1owAZtjQ5NeKQDAlcKbFo6nswDgSof9Tgu9Uniw8KYFE7A5NjTplQIAXCm8aeF4OgsArnTY77TQK4UHC29aMAGbY0OTXikAwJXCmxaOp7MA4EqH/U4LvVJ4sPCmBROwOTY06ZUCAFwpvGnheDoLAK502O+00CuFBwtvWjABm2NDk14pAMCVwpsWjqezAOBKh/1OC71SeLDwpjUTsC02NOmVAgBcKbxp4Xg6CwCudNjvtNArhccLb1owAdtiQ5P/aw/uqiTngXSNvgHEF6JgHgJgIgIRRAwgeJiCLgxEs+Zbp9e0TldkZ3XlX1U+e0d3AQA+qZamxH6cAoDP29ZFH4nuwv3V0pQwAa/FhibRXQCAT6qlKbEfpwDg87Z1USK6C3dWS1PCBLwWG5pEdwEAPqmWpo/sxykA+CfbuigR3YU7q6UpYQJeiw1NorsAAJ9RS1NiP04BwD/Z1kWJ6C7cWS1NCRPwWmxoEt0FAPiMWpoS+3EKAP7Jti5KRHfhzmppSpiA12JDk+guAMBn1NKU2I9TAPBPtnVRIroLd1ZLU84EvBAbmkR3AQA+o5amxH6cAoB/sq2LEtFduL9amhIm4IXY0CS6CwDwGbU0JfbjFAD8k21dlIjuwv3V0pQwAS/EhibRXQCAz6ilKbEfpwDgn2zrokR0F+6vlqaECXghNjSJ7gIAfEYtTYn9OAUA/2pbFyWiu3BntTQlTMALsaFJdBcA4DNqaUrsxykA+FfbuigR3YU7q6UpYQJeiA1NorsAAJ9RS1NiP04BwL/a1kWJ6C7cWS1NORPwKmxoEt0FAPiMWpoS+3EKAP7Vti5KRHfh/mppSpiAV2FDk+guAMBn1NKU2I9TAPCvtnVRIroL91dLU8IEvAobmkR3AQCuVktTYj9OAcAXbOuiRHQX7q+WpoQJeBU2NInuAgBcrZamxH6cAoAv2NZFiegu3F8tTQkT8CpsaBLdBQC4Wi1Nif04BQBfsK2LEtFduL9amhIm4FXY0CS6CwBwtVqaEvtxCgC+YFsXJaK7cH+1NCVMwKuwoUl0FwDgarU0JfbjFAB8zbYuSkR34c5qacqZgJdgQ5PoLgDA1WppSuzHKQD4mm1dlIjuwv3V0pQwAS/BhibRXQCAq9XSlNiPUwDwNdu6KBHdhfurpSlhAl6CDU2iuwAAV6ulKbEfpwDga7Z1USK6C/dXS1POBDyfDU2iuwAAV6ulKbEfpwDga7Z1USK6C/dXS1POBDyfDU2iuwAAV6ulKbEfpwDga7Z1USK6Cw9RS1POBDyZDU2iuwAAV6ulKbEfpwDga7Z1USK6C49SS1POBDyTDU2iuwAA16mlKbEfpwDgy7Z1USK6C49SS9NFJuBpbGgS3QUAuE4tTYn9OAUAt7Ctiz4S3YUHqqXpIhPwHDY0ie4CAFynlqbEfpwCgFvY1kWJ6C48UC1NORPwHDY0ie4CAFynlqbEfpwCgFvY1kWJ6C48Vi1NORPwBDY0ie4CAFynlqbEfpwCgFvY1kWJ6C48Vi1NF5mAR7OhSXQXAOA6tTQl9uMUANzCti5KRHfh4WppusgEPJQNTaK7AADXqaUpsR+nAOAWtnVRIroLz1BLU84EPJQNTaK7AADXqaUpsR+nAOAWtnVRIroLT1JLU84EPI4NTaK7AADXqaUpsR+nAOAWtnVRIroLT1JL00Um4EFsaBLdBQC4Ti1Nif04BQC3sK2LEtFdeJ5ami4yAY9gQ5PoLgDAdWppSuzHKQC4kW1dlIjuwvPU0pQzAY9gQ5PoLgDAdWppSuzHKQC4kW1dlIjuwlPV0pQzAXdnQ5PoLgDAFWppSuzHKQC4nW1dlIjuwlPV0nSRCbgvG5pEdwEArlBLU2I/TgHA7WzrokR0F56tlqaLTMAd2dAkugsAcIVamhL7cQoAbmdbFyWiu/ACamnKmYA7sqFJdBcA4Aq1NCX24xQA3M62LkpEd+E11NKUMwH3YkOT6C4AwBVqaUrsxykAuJ1tXZSI7sLLqKUpZwLuwoYm0V0AgCvU0pTYj1MAcDvbuigR3YWXUUvTRSbg9mxoEt0FALhCLU2J/TgFALezrYsS0V14JbU05UzA7dnQJLoLAHCFWpoS+3EKAG5qWxclorvwSmppypmAG7OhSXQXAOAKtTQl9uMUANzUti5KRHfhxdTSlDMBt2RDk+guAMAVamlK7McpALipbV2UiO7Ci6ml6SITcDM2NInuAgBcoZamxH6cAoCb2tZFieguvJ5ami4yAbdhQ5PoLgDA39TSlNiPUwBwa9u6KBHdhZdUS1POBNyGDU2iuwAAf1NLU2I/TgHArW3rokR0F15VLU05E3ADNjSJ7gIA/E0tTYn9OAUAt7atixLRXXhVtTRdZAK+yoYm0V0AgL+ppSmxH6cA4Na2dVEiugsvrJami0zAl9jQJLoLAPA3tTQl9uMUANzBti76SHQXXlstTTkT8CU2NInuAgD8TS1Nif04BQB3sK2LEtFdeG21NOVMwL+zoUl0FwDgb2ppSuzHKQC4g21dlIjuwmurpekiE/CPbGgS3QUA+JtamhL7cQoA7mBbFyWiu/Dyamm6yAT8CxuaRHcBAP6mlqbEfpwCgDvY1kWJ6C58B7U05UzAv7ChSXQXAOBvamlK7McpALiDbV2UiO7CN1FLU84EfJoNTaK7AAB/U0tTYj9OAcAdbOuiRHQXvolami4yAZ9jQ5PoLgDA39TS9JH9OAUA97GtixLRXfg+amm6yAR8gg1NorsAABfV0pTYj1MAcB/buigR3YVvpZamnAn4BBuaRHcBAC6qpSmxH6cA4G62dVEiugvfSi1NORNwLRuaRHcBAC6qpSmxH6cA4G62dVEiugvfTS1NORNwFRuaRHcBAC6qpSmxH6cA4G62dVEiugvfTS1NF5mAv7OhSXQXAOCiWpoS+3EKAO5mWxclorvwDdXSlDMBf2dDk+guAMBFtTQl9uMUANzNti5KRHfhe6qlKWcC/sKGJtFdAICLamlK7McpALibbV2UiO7Ct1VLU84EXGJDk+guAMBFtTQl9uMUANzNti5KRHfh26ql6SITkLKhSXQXAOCiWpoS+3EKAO5mWxclorvwndXSlDMBKRuaRHcBAC6qpSmxH6cA4J62ddFHorvwzdXSlDMBH7OhSXQXAOCiWpoS+3EKAO5pWxclorvwzdXSlDMBH7ChSXQXACBXS1NiP04BwJ1t66JEdBe+uVqaLjIB/z8bmkR3AQBytTQl9uMUANzZti5KRHfh+6ul6SITMLGhSXQXACBXS1NiP04BwJ1t66JEdBd+hFqaciZgYkOT6C4AQK6WpsR+nAKAO9vWRYnoLvwUtTTlTMD/saFJdBcAIFdLU2I/TgHAnW3rokR0F36KWpouMgH/jw1NorsAALlamhL7cQoA7mxbFyWiu/CD1NJ0kQn4XzY0ie4CAORqaUrsxykAuLNtXZSI7sLPUktTzgT8LxuaRHcBAHK1NCX24xQA3N+2LkpEd+FnqaUpZwJkQ5PoLgBArpamxH6cAoD729ZFiegu/Cy1NF1kwruzoUl0FwAgV0tTYj9OAcD9beuiRHQXfpxami4y4a3Z0CS6CwCQq6UpsR+nAOD+tnVRIroLP1EtTTkT3poNTaK7AAC5Wpo+sh+nAOAhtnVRIroLP1QtTTkT3pcNTaK7AACJWpoS+3EKAB5iWxclorvwc9XSlDPhTdnQJLoLAJCopSmxH6cA4CG2dVEiugs/Vy1NF5nwjmxoEt0FAEjU0pTYj1MA8BDbuigR3YUfrZamnAnvyIYm0V0AgEQtTYn9OAUAD7GtixLRXfjpamnKmfB2bGgS3QUASNTSlNiPUwDwKNu6KBHdhZ+ulqacCe/FhibRXQCARC1Nif04BQCPsq2LEtFd+OlqabrIhDdiQ5PoLgBAopamxH6cAoBH2dZFieguvIFamnImvBEbmkR3AQAStTQl9uMUADzKti5KRHfhPdTSlDPhXdjQJLoLAJCopSmxH6cA4FG2dVEiugtvo5amnAlvwYYm0V0AgEQtTYn9OAUAj7KtixLRXXgbtTRdZMLPZ0OT6C4AQKKWpsR+nAKAR9nWRYnoLryTWpouMuGHs6FJdBcA4CO1NCX24xQAPNC2LkpEd+HN1NKUM+GHs6FJdBcA4CO1NCX24xQAPNa2LvpIdBfeTy1NORN+MhuaRHcBAD5SS1NiP04BwGNt66JEdBfeTC1NF5nwY9nQJLoLAPCRWpoS+3EKAB5rWxclorvwfmppusiEn8mGJtFdAICP1NKU2I9TAPBY27ooEd2Ft1RLU86En8mGJtFdAICP1NKU2I9TAPBY27ooEd2Fd1VLU86EH8iGJtFdAICP1NKU2I9TAPBY27ooEd2Fd1VL00Um/DQ2NInuAgB8pJamxH6cAoDH2tZFieguvLFami4y4UexoUl0FwDgI7U0JfbjFAA81rYuSkR34b3V0pQz4UexoUl0FwDgI7U0JfbjFAA81rYuSkR34e3V0pQz4eewoUl0FwDgI7U0JfbjFAA83LYuSkR34b3V0nSRCT+EDU2iuwAAf6ilKbEfpwDgGbZ1USK6C2+vlqaLTPgJbGgS3QUA+EMtTYn9OAUAz7CtixLRXYBUS1POhJ/AhibRXQCAP9TSlNiPUwDwDNu6KBHdBfynlqacCd+eDU2iuwAAf6ilKbEfpwDgGbZ1USK6C/illqacCd+bDU2iuwAAf6ilKbEfpwDgGbZ1USK6C/illqaLTPjGbGgS3QUA+EMtTYn9OAUAz7CtixLRXcBvamnKmfCN2dAkugsA8IdamhL7cQoAnmFbFyWiu4BZLU05E74rG5pEdwEA/lBLU2I/TgHAk2zroo9EdwF/qKUpZ8K3ZEOT6C4AwB9qaUrsxykAeJJtXZSI7gJmtTRdZML3Y0OT6C4AwB9qaUrsxykAeJJtXZSI7gL+UEvTRSZ8MzY0ie4CAPyhlqbEfpwCgCfZ1kWJ6C7gI7U05Uz4ZmxoEt0FAPhDLU0f2Y9TAPA827ooEd0FJGppypnwndjQJLoLADCrpSmxH6cA4Hm2dVEiugtI1NJ0kQnfhg1NorsAALNamhL7cQoAnmdbFyWiu4BcLU0XmfA92NAkugsAMKulKbEfpwDgebZ1USK6C7iolqacCd+DDU2iuwAAs1qaEvtxCgCeZ1sXJaK7gL+ppSlnwjdgQ5PoLgDArJamxH6cAoCn2tZFH4nuAv6mlqaLTHh1NjSJ7gIAzGppSuzHKQB4qm1dlIjuAv6mlqaLTHhpNjSJ7gIAzGppSuzHKQB4qm1dlIjuAq5QS1POhJdmQ5PoLgDArJamxH6cAoCn2tZFiegu4Dq1NOVMeF02NInuAgDMamlK7McpAHiqbV2UiO4CrlNL00UmvCgbmkR3AQBmtTQl9uMUADzVti5KRHcBV6ul6SITXpENTaK7AACzWpoS+3EKAJ5qWxcloruAz6il6SITXo4NTaK7AAC/qaUpsR+nAODZtnVRIroL+KRami4y4bXY0CS6CwDwm1qaEvtxCgCebVsXJaK7gM+rpekiE16IDU2iuwAAv6mlKbEfpwDgBWzrokR0F/BJtTRdwYSXYEOT6C4AwG9qaUrsxykAeAHbuigR3QV8Xi1NVzDh+WxoEt0FAPhNLU2J/TgFAC9gWxcloruAf1JL03VMeCYbmkR3AQB+U0tTYj9OAcAL2NZFiegu4F/V0nQdE57GhibRXQCA39TSlNiPUwDwArZ1USK6C/iCWpquZsIT2NAkugsA8JtamhL7cQoAXsC2LkpEdwFfU0vT1Ux4NBuaRHcBAH5TS1NiP04BwAvY1kWJ6C7gFmppuo4JD2VDk+guAMBvamlK7McpAHgB27ooEd0F3EgtTVcz4UFsaBLdBQD4TS1Nif04BQCvYVsXfSS6C7ipWpquY8Ij2NAkugsA8Jtamj6yH6cA4GVs66JEdBdwU7U0Xc2E+7KhSXQXAOCXWpoS+3EKAF7Gti5KRHcBt1ZL09VMuCMbmkR3AQB+qaUpsR+nAOBlbOuiRHQXcB+1NF3NhLuwoUl0FwDgl1qaEvtxCgBexrYuSkR3AXdTS9PVTLg9G5pEdwEAfqmlKbEfpwDgZWzrokR0F3BntTRdx4Qbs6FJdBcA4JdamhL7cQoAXsa2LkpEdwH3V0vT1Uy4GRuaRHcBAH6ppSmxH6cA4GVs66JEdBfwKLU0XceE27ChSXQXAOCXWpoS+3EKAF7Gti5KRHcBD1RL09VM+CobmkR3AQB+qaUpsR+nAOBvtnXRC4juAh6olqarmfAlNjSJ7gIA/FJLU2I/TgH4vG1dhIeL7gIerpamq5nwj2xoEt0FAPillqbEfpwCbmFbFwF3Ft0FPEMtTVcz4V/Y0CS6CwDwSy1Nif04hTvY1kUAbi26C3ieWpquY8Kn2dAkugsA8J9amhL7cepRtnURAHxNdBfwVLU0Xc2ET7ChSXQXAOA/tTQBwPcX3QW8hlqarmPCtWxoEt0FAPhPLU0A8P1FdwEvo5amq5nwdzY0ie4CAPynliYA+Oaiu4AXU0vT1Uz4CxuaRHcBAP5TSxMAfFvRXcALq6XpaiakbGgS3QUA+E8tTQDwNdFdABK1NF3NhI/Z0CS6CwDwSy1NAG4qugsAflNL03VM+IANTaK7AAC/1NIE3Fl0FwC8t1qarmbCxIYm0V0AgN/U0oQHiu4CALylWpquY8L/saFJdBcA4A+1ND1JdBcAAO+hlqarmfC/bGgS3QUAAAAAT1JL09VMkA1NorsAAAAA4Klqabqa6a3Z0CS6CwAAAACerZamq5nelw1NorsAAAAA4DXU0nQd05uyoUl0FwAAAAC8jFqarmZ6OzY0ie4CAAAAgBdTS9N1TO/FhibRXQAAAADwemppuprpXdjQJLoLAAAAAF5SLU1XM70FG5pEdwEAAADAC6ul6WqmH86GJtFdAAAAAPDaamm6mukns6FJdBcAAAAAfAe1NF3H9GPZ0CS6CwAAAAC+iVqarmb6gWxoEt0FAAAAAN9KLU3XMf00NjSJ7gIAAACA76aWpquZfg4bAgAAAIC3Y/ohbAgAAAAA3pHpJ7AhAAAAAHhTpm/PhgAAAADgTZm+PRsCAAAAgPdl+t7+B1IFNmzJ5y/UAAAAAElFTkSuQmCC;" parent="1" vertex="1">
                    <mxGeometry x="331" y="200" width="266.45" height="140" as="geometry"/>
                </mxCell>
                <mxCell id="9" value="(a)" style="text;html=1;align=center;verticalAlign=middle;resizable=0;points=[];autosize=1;strokeColor=none;fillColor=none;fontFamily=Times New Roman;fontSize=26;" vertex="1" parent="1">
                    <mxGeometry x="113.22" y="344" width="40" height="40" as="geometry"/>
                </mxCell>
                <mxCell id="10" value="(b)" style="text;html=1;align=center;verticalAlign=middle;resizable=0;points=[];autosize=1;strokeColor=none;fillColor=none;fontFamily=Times New Roman;fontSize=26;" vertex="1" parent="1">
                    <mxGeometry x="439.22" y="344" width="50" height="40" as="geometry"/>
                </mxCell>
            </root>
        </mxGraphModel>
    </diagram>
</mxfile>